<?xml version="1.0" standalone="no"?><!DOCTYPE svg PUBLIC "-//W3C//DTD SVG 1.1//EN" "http://www.w3.org/Graphics/SVG/1.1/DTD/svg11.dtd"><svg t="1680336288065" class="icon" viewBox="0 0 1024 1024" version="1.1" xmlns="http://www.w3.org/2000/svg" p-id="1671" xmlns:xlink="http://www.w3.org/1999/xlink" width="200" height="200"><path d="M102.4 102.4h81.92v573.44H102.4z" fill="#FFEA00" p-id="1672"></path><path d="M204.8 0H81.92C36.864 0 0 36.864 0 81.92v614.4c0 6.144 2.048 14.336 2.048 20.48H0l143.36 307.2 143.36-307.2h-2.048c2.048-6.144 2.048-14.336 2.048-20.48V81.92c0-45.056-36.864-81.92-81.92-81.92z m20.48 675.84c0 22.528-18.432 40.96-40.96 40.96H102.4c-22.528 0-40.96-18.432-40.96-40.96V102.4c0-22.528 18.432-40.96 40.96-40.96h81.92c22.528 0 40.96 18.432 40.96 40.96v573.44zM942.08 0H430.08c-45.056 0-81.92 36.864-81.92 81.92v860.16c0 45.056 36.864 81.92 81.92 81.92h512c45.056 0 81.92-36.864 81.92-81.92V81.92c0-45.056-36.864-81.92-81.92-81.92z m20.48 921.6c0 22.528-18.432 40.96-40.96 40.96H450.56c-22.528 0-40.96-18.432-40.96-40.96V102.4c0-22.528 18.432-40.96 40.96-40.96h471.04c22.528 0 40.96 18.432 40.96 40.96v819.2z" fill="" p-id="1673"></path><path d="M501.76 225.28h368.64c16.384 0 30.72-14.336 30.72-30.72S886.784 163.84 870.4 163.84h-368.64c-16.384 0-30.72 14.336-30.72 30.72s14.336 30.72 30.72 30.72z m368.64 102.4h-368.64c-16.384 0-30.72 14.336-30.72 30.72s14.336 30.72 30.72 30.72h368.64c16.384 0 30.72-14.336 30.72-30.72s-14.336-30.72-30.72-30.72z m0 143.36h-368.64c-16.384 0-30.72 14.336-30.72 30.72s14.336 30.72 30.72 30.72h368.64c16.384 0 30.72-14.336 30.72-30.72s-14.336-30.72-30.72-30.72z m0 163.84h-368.64c-16.384 0-30.72 14.336-30.72 30.72s14.336 30.72 30.72 30.72h368.64c16.384 0 30.72-14.336 30.72-30.72s-14.336-30.72-30.72-30.72z m0 143.36h-368.64c-16.384 0-30.72 14.336-30.72 30.72s14.336 30.72 30.72 30.72h368.64c16.384 0 30.72-14.336 30.72-30.72s-14.336-30.72-30.72-30.72z" fill="#FFEA00" p-id="1674"></path></svg>